<?xml version="1.0" standalone="no"?>
<!DOCTYPE svg PUBLIC "-//W3C//DTD SVG 20010904//EN"
 "http://www.w3.org/TR/2001/REC-SVG-20010904/DTD/svg10.dtd">
<svg version="1.0" xmlns="http://www.w3.org/2000/svg"
 width="1024.000000pt" height="1024.000000pt" viewBox="0 0 1024.000000 1024.000000"
 preserveAspectRatio="xMidYMid meet">
<metadata>
Created by potrace 1.14, written by Peter Selinger 2001-2017
</metadata>
<g transform="translate(0.000000,1024.000000) scale(0.100000,-0.100000)"
fill="#000000" stroke="none">
<path d="M1553 10165 c-7 -8 -13 -18 -13 -23 0 -5 -20 -7 -45 -4 -37 4 -49 1
-63 -15 -22 -25 -66 -16 -70 15 -2 15 -10 22 -25 22 -35 0 -229 -49 -245 -62
-7 -6 -23 -30 -34 -52 -11 -23 -28 -50 -38 -61 -10 -11 -20 -36 -24 -56 -8
-44 -30 -92 -51 -109 -8 -7 -15 -23 -15 -36 0 -13 -4 -24 -9 -24 -5 0 -12 -15
-15 -34 -4 -19 -15 -45 -25 -57 -10 -13 -21 -34 -25 -46 -4 -13 -11 -23 -15
-23 -4 0 -13 -12 -20 -27 -7 -14 -31 -42 -54 -62 -22 -20 -49 -44 -59 -53 -10
-10 -21 -18 -25 -18 -3 0 -22 -12 -42 -27 -44 -35 -65 -47 -118 -72 -24 -11
-43 -24 -43 -29 0 -5 -11 -14 -24 -21 -13 -7 -29 -25 -36 -39 -9 -21 -13 -23
-21 -11 -7 12 -9 11 -9 -3 0 -11 -8 -18 -21 -18 -22 0 -92 -67 -83 -81 2 -5
-7 -11 -21 -15 -16 -4 -25 -13 -25 -25 0 -10 -6 -19 -14 -19 -8 0 -19 -13 -24
-29 -9 -25 -7 -34 14 -62 13 -18 24 -29 24 -23 0 16 89 66 112 62 13 -2 24
-11 26 -22 5 -23 26 -46 41 -46 17 0 13 -25 -6 -42 -43 -38 -294 -148 -337
-148 -8 0 -17 -4 -21 -9 -10 -17 -34 -382 -45 -681 -11 -323 -14 -4235 -3
-4364 l6 -77 35 63 c19 35 55 101 79 148 25 47 53 94 63 105 10 11 21 29 24
41 15 50 82 90 71 42 -5 -24 14 -72 28 -69 10 2 80 -28 87 -37 3 -4 21 -15 40
-24 30 -15 38 -15 68 -2 19 7 38 12 42 9 5 -3 10 3 12 12 3 16 6 15 17 -5 8
-15 13 -72 15 -160 1 -75 5 -143 9 -149 20 -32 39 -10 77 90 19 48 80 117 104
117 22 0 28 -61 35 -355 5 -181 11 -290 19 -308 19 -45 14 -138 -13 -239 -27
-99 -30 -142 -16 -180 8 -22 134 -158 146 -158 3 0 5 8 5 18 0 14 12 22 53 31
47 10 55 16 65 45 7 18 12 40 12 49 0 9 10 23 22 31 21 15 23 14 44 -22 28
-44 32 -123 9 -142 -8 -7 -15 -19 -15 -26 0 -8 -7 -14 -16 -14 -8 0 -12 5 -9
10 7 11 -6 13 -29 4 -11 -4 -13 -14 -10 -34 5 -20 0 -33 -17 -49 -12 -11 -28
-21 -35 -21 -7 0 -24 -10 -38 -23 -13 -12 -48 -40 -76 -62 -28 -22 -65 -62
-82 -89 -16 -27 -55 -76 -87 -109 -31 -32 -83 -103 -116 -157 -33 -54 -93
-152 -132 -217 -40 -65 -73 -123 -73 -129 0 -6 -9 -21 -20 -34 -29 -34 -61
-126 -71 -205 -14 -122 -22 -159 -36 -181 -13 -20 -20 -22 -86 -17 -81 6 -97
14 -97 52 0 45 71 279 130 431 18 45 34 133 46 247 6 60 8 64 70 126 62 62 72
82 65 135 -1 6 6 12 15 12 15 0 16 9 10 80 -5 63 -4 80 7 80 10 0 16 37 26
145 13 148 9 205 -14 205 -7 0 -16 7 -19 16 -4 10 -2 13 7 9 6 -4 4 0 -5 8
-10 8 -18 24 -18 35 0 47 -32 38 -79 -22 -17 -21 -31 -36 -31 -32 0 4 -7 1
-15 -8 -8 -8 -15 -17 -15 -19 0 -2 -18 -24 -39 -47 -22 -24 -45 -55 -53 -69
-11 -22 -56 -75 -116 -137 -6 -7 -12 -17 -12 -22 0 -6 -16 -24 -36 -41 l-36
-32 5 -332 c3 -183 10 -377 16 -432 18 -163 32 -259 41 -270 4 -5 15 -53 24
-105 54 -299 176 -545 371 -749 277 -288 623 -422 1250 -483 140 -13 3710 -24
4300 -13 l361 7 -36 36 c-41 41 -88 72 -111 72 -8 0 -42 21 -75 48 -32 26
-115 76 -184 111 -69 35 -134 71 -145 80 -21 17 -42 29 -104 62 -21 10 -46 27
-57 37 -10 9 -30 23 -44 30 -14 7 -47 25 -75 41 -27 15 -75 41 -105 56 -30 16
-66 36 -80 45 -14 9 -45 30 -70 45 -97 61 -118 77 -195 146 -104 93 -303 229
-337 229 -28 0 -55 -46 -62 -107 -3 -32 -13 -71 -21 -88 -23 -48 -85 -211 -85
-226 0 -8 -9 -25 -19 -38 -16 -20 -23 -22 -59 -16 -23 4 -42 10 -42 14 0 9
-125 91 -139 91 -6 0 -11 5 -11 11 0 5 -13 15 -29 20 -16 6 -40 24 -52 41 -13
17 -49 41 -79 55 -30 13 -64 28 -75 34 -83 38 -165 50 -165 24 0 -8 -4 -15 -9
-15 -24 0 -22 -44 5 -145 13 -48 25 -194 19 -240 -7 -59 -43 -145 -60 -145 -6
0 -18 -12 -26 -27 -8 -14 -27 -41 -42 -58 -24 -27 -35 -32 -77 -34 -28 -1 -50
3 -50 8 0 5 -12 11 -27 13 -19 2 -40 19 -67 55 -76 96 -97 127 -103 153 -3 14
-16 37 -28 52 -13 15 -28 51 -35 80 -7 29 -19 62 -26 73 -8 11 -14 26 -14 35
-1 8 -9 33 -20 55 -11 22 -19 48 -20 57 0 9 -4 18 -9 20 -5 2 -28 41 -52 86
-24 46 -49 92 -55 102 -17 31 -75 99 -151 179 -77 80 -109 122 -143 183 -11
21 -25 38 -30 38 -9 0 -72 125 -85 170 -4 14 -27 69 -51 124 -24 54 -44 107
-44 117 0 10 -4 20 -9 23 -5 3 -19 32 -31 63 -36 94 -86 192 -122 242 -10 13
-18 36 -18 50 0 15 -6 35 -14 46 -12 17 -12 26 2 59 l15 38 61 -5 c34 -3 75
-9 91 -12 46 -10 134 -10 199 -1 45 6 59 12 63 27 7 24 23 25 24 2 1 -12 4 -9
8 7 4 14 13 25 21 25 8 0 17 -11 20 -25 8 -32 36 -34 32 -2 -5 37 29 24 53
-19 16 -29 156 -221 175 -239 13 -13 50 -70 50 -78 0 -5 11 -19 24 -31 13 -12
32 -39 42 -59 11 -20 39 -62 64 -94 25 -31 59 -75 75 -98 17 -22 41 -53 55
-67 24 -26 80 -109 80 -119 0 -3 9 -15 21 -27 11 -12 29 -39 40 -59 10 -20 33
-57 51 -83 18 -26 38 -54 43 -63 6 -9 15 -22 20 -28 13 -16 33 -42 97 -127 27
-37 56 -67 64 -67 7 0 22 -13 33 -29 11 -15 34 -34 51 -41 18 -8 30 -20 30
-31 0 -11 4 -19 10 -19 6 0 6 9 0 26 -14 36 -12 54 5 54 8 0 15 5 15 10 0 6
-7 10 -15 10 -10 0 -15 10 -15 30 0 17 -4 30 -10 30 -5 0 -10 7 -10 15 0 8
-11 25 -25 37 -14 12 -25 25 -25 30 0 4 -21 30 -47 56 -80 81 -145 154 -195
222 -50 67 -66 86 -162 202 -31 36 -56 69 -56 72 0 3 -18 23 -40 45 -22 22
-40 45 -40 51 0 7 -13 29 -28 49 -16 20 -37 54 -47 76 -10 22 -31 59 -46 81
-15 23 -36 60 -45 83 -9 22 -20 41 -24 41 -9 0 -99 140 -118 184 -16 36 1 64
26 44 8 -7 17 -12 19 -10 8 7 90 -39 147 -83 33 -24 96 -77 140 -117 107 -98
145 -127 185 -144 47 -20 67 -18 88 9 24 30 136 84 298 144 22 8 44 19 50 24
5 5 16 9 25 9 8 0 29 7 45 16 17 9 89 38 160 65 72 28 140 57 152 65 12 8 27
14 33 14 7 0 42 18 78 39 37 22 103 54 147 71 44 18 85 35 90 40 6 4 39 20 75
35 36 15 76 37 90 49 14 12 41 30 60 40 19 10 56 34 83 52 26 19 52 34 58 34
6 0 28 13 49 30 20 16 48 34 61 40 29 12 58 30 77 48 7 6 16 12 20 12 4 1 29
21 56 45 28 25 53 45 58 45 9 0 38 22 88 70 21 19 57 46 81 59 24 13 60 39 79
57 20 19 41 34 47 34 6 0 16 7 23 15 7 8 30 20 51 26 49 15 82 -4 100 -58 7
-22 33 -58 60 -84 31 -29 49 -55 50 -70 0 -17 2 -20 7 -9 14 30 45 70 54 70 6
0 8 -34 4 -92 -21 -324 -20 -358 9 -358 9 0 16 -14 20 -37 4 -21 9 -50 11 -64
8 -41 69 -129 105 -151 18 -11 58 -42 89 -68 33 -29 102 -70 174 -104 130 -61
126 -60 126 -47 0 5 -16 16 -35 25 -40 19 -44 25 -15 23 11 -1 20 -5 20 -9 0
-4 12 -8 28 -7 l27 0 -25 11 c-23 10 -19 12 43 21 80 11 125 -3 302 -93 93
-48 381 -170 401 -170 11 0 199 -84 214 -96 8 -6 26 -15 40 -19 26 -7 121 -63
130 -77 6 -8 86 -38 102 -38 15 0 -38 40 -137 106 -119 78 -151 114 -100 114
30 0 72 -30 223 -158 127 -107 187 -162 178 -162 -3 0 2 -9 12 -20 9 -11 29
-55 44 -98 25 -71 26 -78 11 -94 -9 -10 -22 -18 -30 -18 -20 0 -16 -24 10 -47
12 -11 65 -43 117 -71 132 -69 211 -115 283 -162 94 -61 420 -271 519 -335 31
-20 74 -51 116 -82 24 -18 48 -33 54 -33 5 0 22 -8 36 -19 27 -18 65 -29 137
-38 22 -3 47 -13 55 -22 8 -10 23 -21 33 -24 10 -4 15 -11 12 -17 -3 -5 0 -10
8 -10 8 0 49 -16 92 -35 l78 -36 29 28 c84 80 215 282 268 411 17 42 40 95 50
118 11 22 22 56 24 75 3 19 14 74 26 123 20 87 54 284 65 376 3 25 7 56 10 70
16 85 25 492 19 862 l-7 416 -24 13 c-13 7 -29 23 -36 35 -63 116 -62 113 -44
132 12 12 32 16 62 15 l44 -1 6 51 c4 29 5 746 3 1595 l-3 1542 -30 28 c-16
16 -37 32 -46 38 -16 9 -73 56 -158 129 -78 67 -140 138 -162 182 -17 35 -18
45 -7 62 19 31 68 27 126 -9 27 -16 54 -30 61 -30 6 0 11 -4 11 -9 0 -9 37
-25 50 -23 3 1 15 -6 28 -14 20 -13 22 -13 22 3 0 10 -34 54 -76 98 -74 78
-100 117 -89 136 3 4 24 13 45 19 33 9 40 15 40 35 0 19 5 25 23 25 26 0 106
-24 137 -40 l20 -11 0 450 -1 451 -32 8 c-18 5 -33 6 -34 3 -2 -3 -21 -6 -43
-5 -22 0 -40 -3 -40 -7 0 -4 -16 -3 -36 3 -23 6 -39 6 -43 0 -6 -9 -51 -1
-241 45 -138 33 -179 47 -280 97 -179 89 -410 251 -410 289 0 11 137 -1 164
-15 11 -6 22 -6 28 0 6 6 -17 27 -64 57 -40 27 -75 51 -78 55 -3 4 -12 9 -20
12 -12 4 -11 7 5 15 21 10 108 5 260 -17 44 -6 112 -16 150 -21 39 -4 106 -15
150 -24 140 -27 169 -29 184 -12 11 14 7 17 -30 27 -23 6 -49 15 -58 20 -9 5
-33 16 -54 25 -27 12 -37 21 -33 32 3 8 6 17 6 19 0 3 5 2 10 -1 6 -3 10 -1
10 4 0 6 13 11 29 11 16 0 31 5 33 11 2 7 63 12 173 15 207 5 275 12 275 27
-1 43 -13 56 -49 55 -20 0 -62 8 -94 18 -48 14 -60 15 -67 5 -10 -18 -86 0
-82 19 2 10 -14 11 -75 5 -43 -4 -82 -11 -87 -16 -6 -5 -61 -9 -123 -9 -92 0
-113 3 -113 14 0 9 13 16 33 18 27 3 29 5 13 13 -11 5 -26 4 -37 -3 -24 -15
-58 -15 -116 -1 -37 10 -47 9 -54 -2 -6 -10 -9 -10 -9 -2 0 7 -7 10 -15 7 -8
-4 -15 -2 -15 4 0 20 -129 31 -322 27 -109 -2 -198 0 -198 4 0 4 -61 6 -136 5
-139 -2 -161 -8 -149 -42 3 -7 1 -11 -3 -9 -4 3 -41 -1 -82 -9 -41 -8 -131
-23 -200 -34 -69 -11 -134 -22 -144 -24 -30 -8 -77 5 -83 23 -6 18 -15 43 -33
86 -7 17 -16 44 -20 60 -5 17 -17 55 -29 85 -15 40 -20 48 -21 29 0 -29 43
-178 65 -226 20 -42 19 -60 -5 -66 -20 -5 -193 7 -252 18 -16 2 -28 1 -28 -4
0 -7 217 -31 286 -31 27 0 35 -6 54 -42 12 -23 30 -53 41 -66 10 -14 19 -31
19 -38 0 -8 5 -14 10 -14 6 0 10 -7 10 -15 0 -8 5 -15 10 -15 15 0 12 9 -10
37 -11 14 -20 31 -20 39 0 7 -3 14 -7 16 -5 2 -18 24 -30 50 l-23 48 23 4 c12
2 96 13 187 24 142 16 170 17 205 6 22 -8 46 -14 53 -14 16 0 51 -39 52 -57 0
-7 5 -13 10 -13 6 0 10 -37 10 -90 0 -49 4 -90 9 -90 5 0 15 -17 22 -37 6 -21
21 -51 31 -66 11 -15 18 -36 15 -47 -3 -12 0 -17 8 -14 15 6 26 -29 14 -47 -7
-11 -11 -11 -21 2 -7 9 -31 25 -52 35 -29 13 -43 28 -54 56 -10 25 -21 38 -34
38 -11 0 -18 7 -18 19 0 23 -43 53 -64 45 -9 -3 -16 -2 -16 4 0 6 6 12 13 15
10 4 10 7 0 18 -11 11 -13 10 -13 -4 0 -9 -7 -17 -15 -17 -11 0 -15 -11 -15
-40 0 -28 -4 -40 -14 -40 -8 0 -17 -6 -19 -12 -3 -7 -8 2 -12 19 -8 34 -27 37
-20 3 2 -11 0 -20 -6 -20 -5 0 -9 5 -9 10 0 12 -50 59 -64 60 -5 0 -6 -13 -2
-30 4 -22 2 -30 -9 -30 -8 0 -15 7 -15 15 0 9 -13 29 -30 45 -16 16 -30 34
-30 40 0 5 -4 10 -10 10 -17 0 -11 -25 10 -38 11 -7 20 -18 20 -25 0 -7 8 -22
18 -33 10 -10 25 -35 34 -54 9 -19 37 -55 62 -80 33 -31 46 -52 46 -71 0 -16
4 -30 9 -33 5 -3 7 -16 3 -29 -5 -21 -4 -21 15 -4 25 22 33 22 33 -3 0 -11 4
-20 8 -20 18 0 33 -50 21 -71 -5 -11 -8 -25 -5 -32 2 -7 5 -5 5 4 1 9 8 19 16
23 10 4 14 -1 12 -17 -3 -31 -47 -43 -67 -18 -8 10 -23 21 -32 24 -10 4 -18
16 -18 27 0 11 -7 20 -15 20 -11 0 -15 -11 -15 -40 l0 -40 -40 0 -40 0 0 -80
c0 -78 -1 -80 -24 -80 -13 0 -26 5 -28 12 -3 8 -17 6 -50 -6 -44 -17 -66 -42
-72 -79 -1 -9 -11 -24 -22 -32 -19 -15 -19 -15 1 -30 15 -12 18 -25 16 -60 -2
-35 1 -45 13 -45 9 0 16 -7 16 -15 0 -8 -6 -15 -14 -15 -8 0 -21 -3 -30 -6
-14 -5 -16 3 -16 55 0 54 -2 61 -20 61 -18 0 -20 -7 -20 -80 0 -44 4 -80 9
-80 5 0 -1 -18 -12 -41 -16 -33 -18 -44 -8 -62 16 -30 19 -79 5 -84 -7 -2 -18
3 -27 11 -8 8 -17 12 -21 9 -3 -3 -9 8 -12 25 -4 21 -13 32 -31 37 -15 3 -28
17 -35 35 -5 17 -16 30 -24 30 -8 0 -14 7 -14 15 0 9 -7 18 -15 21 -8 4 -15
13 -15 22 0 9 -8 25 -19 36 -10 12 -33 48 -51 81 -18 33 -37 65 -42 72 -5 7
-6 18 -2 25 4 7 4 10 -1 6 -4 -4 -17 12 -28 35 -110 234 -206 414 -277 521
-47 71 -101 154 -120 183 -33 50 -50 65 -50 43 0 -5 5 -10 10 -10 6 0 10 -5
10 -11 0 -6 26 -47 58 -92 75 -105 160 -256 213 -377 22 -52 57 -131 76 -175
35 -79 57 -129 109 -242 15 -32 46 -88 70 -124 24 -37 44 -72 44 -78 0 -6 17
-30 38 -54 21 -23 42 -50 45 -60 4 -10 11 -16 16 -13 4 3 16 -3 26 -14 14 -16
15 -22 5 -35 -10 -12 -8 -16 11 -24 13 -5 28 -6 33 -3 5 3 6 0 3 -5 -8 -13 19
-37 32 -29 5 4 12 2 16 -4 4 -6 -6 -10 -24 -10 -17 0 -31 -4 -31 -9 0 -12
-104 -21 -111 -9 -4 6 -18 11 -33 11 -14 1 -26 5 -26 10 0 4 -12 5 -27 1 -22
-4 -25 -3 -13 6 12 9 8 11 -20 9 -51 -2 -53 -1 -82 26 -17 15 -33 22 -43 19
-11 -5 -15 -2 -13 8 2 8 -16 36 -39 62 -24 27 -43 54 -43 62 0 8 -4 14 -9 14
-11 0 -28 45 -34 91 l-5 36 31 -28 c17 -16 33 -26 36 -22 3 3 0 8 -6 10 -7 3
-13 13 -13 24 0 10 -4 19 -10 19 -5 0 -19 18 -30 41 -29 55 -107 169 -113 163
-3 -3 0 -22 5 -42 5 -20 20 -82 32 -138 22 -96 60 -184 99 -228 9 -11 17 -25
17 -31 0 -7 9 -20 20 -30 11 -10 20 -24 20 -32 0 -7 7 -16 17 -20 9 -4 32 -22
51 -42 19 -20 32 -30 28 -24 -5 9 -2 11 8 7 8 -3 17 -12 20 -20 8 -22 -37 -28
-72 -10 -17 9 -39 16 -48 16 -9 0 -23 8 -29 17 -9 12 -26 17 -54 17 -23 -1
-41 2 -41 7 0 4 -17 13 -37 19 -21 7 -45 18 -53 25 -8 7 -25 16 -37 19 -13 4
-23 12 -23 17 0 5 -7 9 -15 9 -8 0 -14 3 -14 8 4 24 -3 42 -17 42 -9 0 -12 -5
-8 -12 4 -7 3 -8 -5 -4 -6 4 -9 12 -6 17 4 5 -1 9 -11 9 -13 0 -14 3 -4 15 9
11 10 15 1 15 -18 0 -40 25 -33 37 8 12 163 -47 187 -71 8 -8 12 -22 9 -30 -7
-17 11 -22 21 -6 17 27 -11 51 -125 108 -66 33 -116 62 -112 66 3 4 -1 4 -10
1 -18 -7 -58 14 -208 110 -52 34 -104 65 -115 70 -18 7 -18 9 -2 12 26 7 21
23 -8 23 -14 0 -62 15 -107 34 -46 19 -115 44 -153 55 l-70 21 -38 78 c-21 42
-50 98 -65 123 -54 94 -124 205 -142 224 -26 30 -32 55 -14 55 25 0 7 17 -25
23 -50 10 -212 169 -315 309 -15 21 -31 36 -34 34 -3 -3 2 -14 11 -24 10 -10
17 -24 17 -30 0 -6 11 -19 25 -30 14 -11 25 -25 25 -31 0 -7 7 -14 15 -17 8
-4 12 -10 9 -15 -3 -5 0 -8 7 -7 7 2 22 -10 33 -27 11 -16 39 -46 62 -65 23
-19 39 -39 36 -44 -3 -5 -1 -6 5 -3 5 3 20 -7 32 -23 18 -25 19 -30 5 -30 -8
0 -14 -6 -11 -12 2 -7 11 -13 20 -13 9 0 22 -7 29 -15 11 -12 11 -12 -6 0 -18
14 -18 13 -11 -19 4 -18 18 -49 31 -68 13 -20 24 -40 24 -44 0 -5 4 -9 9 -9 5
0 31 -21 59 -47 28 -27 67 -63 87 -81 19 -18 35 -41 35 -52 0 -10 5 -22 10
-25 6 -3 10 -12 10 -19 0 -8 -19 -13 -57 -15 -67 -3 -231 -24 -352 -47 l-84
-15 -74 73 c-72 71 -236 258 -299 342 -17 22 -41 50 -53 60 -11 11 -21 23 -21
28 0 5 -15 24 -32 42 -53 54 -67 75 -146 216 -14 25 -36 61 -50 80 l-24 35 6
-45 c10 -68 55 -159 86 -175 27 -14 48 -42 105 -141 17 -29 80 -106 142 -171
61 -65 142 -156 179 -203 37 -47 83 -102 102 -122 19 -20 32 -43 29 -51 -3 -8
-59 -33 -126 -57 -66 -23 -126 -49 -132 -57 -11 -12 -8 -13 17 -7 16 4 43 13
61 21 38 15 83 17 83 3 0 -6 -12 -20 -26 -33 -50 -41 -65 -62 -62 -82 2 -14
10 -19 26 -18 30 4 38 -19 18 -54 -43 -79 -56 -112 -41 -107 8 4 15 10 15 14
0 5 12 10 28 12 16 2 31 12 37 26 5 12 18 22 30 22 17 0 18 -2 5 -11 -19 -13
-20 -14 113 31 53 18 100 30 104 26 9 -9 5 -129 -5 -158 -7 -19 -9 -100 -3
-170 0 -11 9 -18 21 -18 11 0 29 -5 40 -12 16 -10 23 -9 43 10 29 28 45 28 74
1 22 -22 23 -22 79 -4 32 10 71 17 88 17 17 -1 43 3 58 9 15 6 36 8 45 4 10
-5 20 -9 23 -9 3 -1 11 -5 18 -9 6 -5 12 -5 12 -2 0 12 64 -46 77 -69 6 -11 8
-25 3 -31 -4 -5 -2 -23 6 -40 l13 -30 -5 36 c-6 41 9 55 83 78 40 13 56 12 96
-4 10 -4 17 -3 17 4 0 6 -6 11 -14 11 -8 0 -17 4 -20 9 -4 5 3 7 14 4 17 -5
20 0 22 33 4 96 2 144 -4 144 -5 0 -8 10 -8 23 0 13 -6 29 -12 36 -11 11 -9
11 12 1 14 -7 29 -19 33 -26 4 -8 18 -14 31 -14 12 0 31 -8 42 -18 10 -10 50
-39 88 -65 38 -27 81 -59 94 -73 25 -24 25 -24 9 -82 -8 -31 -25 -93 -38 -137
-12 -44 -30 -102 -42 -128 -11 -26 -17 -50 -14 -53 3 -3 27 9 53 27 32 22 45
27 41 16 -4 -10 -2 -16 6 -14 8 1 12 -11 11 -37 l-1 -38 19 31 c18 29 25 49
27 78 1 18 44 54 53 45 4 -4 10 -27 13 -52 3 -25 8 -66 11 -91 5 -39 -1 -63
-45 -169 -28 -68 -49 -125 -47 -127 4 -4 56 114 86 195 7 17 16 32 20 32 13 0
19 -99 10 -153 -11 -67 -19 -328 -9 -322 4 3 10 64 14 135 5 91 11 130 20 130
11 0 39 -65 76 -172 7 -21 16 -38 20 -38 4 0 26 -29 49 -65 23 -36 47 -65 52
-65 6 0 8 -7 4 -15 -3 -8 -2 -14 2 -12 5 1 23 -15 41 -35 32 -36 32 -38 21
-90 -6 -29 -14 -68 -17 -85 -3 -18 -9 -33 -13 -33 -5 0 -7 -30 -6 -67 2 -38 4
-87 5 -110 0 -24 8 -49 17 -58 10 -9 18 -26 20 -38 1 -12 7 -37 13 -56 6 -19
8 -45 5 -58 -4 -13 -2 -29 4 -36 5 -6 13 -27 17 -44 3 -18 10 -33 14 -33 5 0
16 -17 25 -38 19 -42 54 -73 131 -117 28 -16 68 -41 91 -56 23 -16 83 -49 135
-75 52 -26 113 -60 136 -75 23 -16 44 -29 48 -29 12 0 96 -52 91 -57 -4 -5
-47 15 -56 26 -9 11 -81 41 -98 41 -10 0 -22 4 -28 9 -5 6 -49 21 -99 36 -171
49 -288 95 -346 137 -48 34 -66 -33 -49 -179 32 -279 86 -522 146 -660 8 -17
14 -34 14 -38 0 -6 52 -122 71 -157 16 -31 10 -29 -21 5 -116 133 -256 560
-311 952 -6 39 -17 92 -25 118 -14 42 -22 51 -67 74 -29 14 -54 30 -55 34 -2
5 -7 7 -11 4 -4 -2 -23 11 -41 30 -19 19 -39 35 -45 35 -6 0 -19 -15 -30 -32
-40 -69 -166 -227 -232 -291 -79 -77 -110 -99 -212 -151 -41 -20 -94 -50 -118
-66 -23 -16 -86 -52 -139 -81 -52 -28 -108 -62 -124 -75 -15 -13 -31 -24 -34
-24 -4 0 -23 -11 -44 -23 -53 -34 -148 -86 -207 -114 -27 -13 -59 -29 -70 -35
-101 -57 -280 -136 -345 -154 -33 -8 -69 -24 -235 -104 -134 -65 -279 -124
-293 -121 -1 1 -18 -5 -38 -14 -59 -24 -228 -15 -344 19 -52 16 -140 39 -195
52 -189 43 -414 102 -502 132 -48 16 -169 56 -267 87 -142 46 -223 80 -390
165 -245 123 -407 217 -413 239 -2 9 -16 22 -31 29 -19 9 -23 9 -14 0 14 -14
16 -28 4 -28 -14 0 -31 46 -26 67 3 11 -2 25 -10 32 -9 8 -16 20 -16 27 0 8
-10 24 -22 36 -15 15 -20 17 -15 5 5 -13 1 -16 -18 -15 -14 1 -25 8 -25 15 0
6 -4 15 -10 18 -6 4 -7 -1 -3 -12 11 -30 -82 94 -171 227 -46 69 -105 148
-130 177 -25 28 -46 55 -46 61 0 5 21 12 46 16 63 8 74 20 74 76 0 40 -3 48
-25 58 -14 7 -40 12 -57 12 -37 0 -108 20 -108 31 0 15 22 21 31 8 15 -24 19
-4 6 32 -6 19 -20 40 -29 47 -10 7 -34 43 -55 80 -20 37 -39 69 -42 72 -18 16
-61 122 -65 163 -3 27 -14 61 -25 75 -63 91 -119 214 -113 249 2 6 -2 14 -8
18 -5 3 -10 17 -10 30 0 12 -7 25 -15 29 -18 7 -20 26 -2 26 6 0 18 4 26 9 23
14 -5 41 -43 42 -17 1 -23 3 -13 6 9 2 17 10 17 18 0 7 7 15 15 19 10 4 14 -1
12 -16 -3 -27 21 -36 30 -11 9 24 23 37 61 57 18 9 32 23 32 31 0 8 4 15 9 15
12 0 55 -58 70 -96 15 -38 101 -123 101 -100 0 9 5 16 11 16 13 0 88 -37 139
-68 39 -24 50 -27 50 -12 0 6 -6 10 -13 10 -15 0 -179 165 -196 197 -16 32
-14 46 15 88 14 21 23 44 20 52 -3 8 -2 12 3 8 5 -3 18 6 29 20 11 14 25 25
32 25 6 0 9 4 6 9 -9 13 4 42 18 40 31 -4 38 2 32 25 -5 19 -1 25 16 29 12 4
26 1 31 -6 5 -7 6 -4 2 9 -6 21 16 54 35 54 5 0 20 11 34 25 28 28 86 35 86
11 0 -8 13 -20 29 -27 35 -16 51 -46 51 -98 0 -25 7 -44 20 -56 11 -10 20 -28
20 -41 0 -37 40 -134 55 -134 8 0 21 12 28 26 12 24 12 31 -7 64 -19 36 -19
38 -2 64 11 18 25 26 39 25 35 -3 95 12 108 27 6 8 41 23 77 34 36 11 70 27
76 35 10 13 33 16 113 15 12 0 24 -4 28 -9 3 -5 14 -7 25 -4 11 3 35 -2 52
-10 35 -16 73 -16 105 2 11 5 22 9 24 7 2 -2 23 -6 47 -10 l42 -6 -6 42 c-6
45 -21 109 -31 135 -5 13 0 15 30 9 42 -8 42 -13 -7 98 -33 73 -33 86 -1 86
22 0 24 2 14 18 -6 10 -37 35 -68 56 l-56 38 58 -7 c37 -5 57 -4 57 3 0 13
-48 52 -64 52 -6 0 -22 9 -36 20 l-25 20 25 0 c23 1 23 2 -8 15 -18 8 -67 21
-110 30 -91 19 -153 36 -167 46 -5 4 -36 12 -67 19 -51 12 -56 15 -40 27 15
12 11 13 -31 7 -47 -6 -68 -2 -172 31 l-40 13 35 3 c19 1 47 1 62 0 22 -2 30
4 40 26 7 15 13 29 13 31 1 1 18 -5 38 -13 43 -18 51 -6 8 13 -16 7 -42 24
-57 37 -16 14 -37 25 -46 25 -9 0 -28 11 -41 24 l-24 24 21 11 c12 5 30 11 40
13 11 2 21 9 24 16 3 9 -12 12 -55 12 -64 0 -147 27 -205 67 -21 14 -35 30
-31 36 3 5 2 8 -3 5 -11 -7 -35 17 -27 26 4 3 -2 6 -13 6 -10 0 -43 22 -71 49
-49 46 -69 72 -41 55 7 -4 8 -3 4 4 -4 7 -14 12 -22 12 -18 0 -57 37 -83 81
l-20 33 30 22 c16 12 63 35 104 50 41 16 75 35 75 42 0 23 15 12 75 -54 33
-36 104 -109 157 -162 54 -52 95 -100 91 -105 -3 -6 -1 -7 6 -3 7 5 24 -7 44
-29 74 -85 227 -191 402 -281 61 -31 130 -72 155 -92 71 -56 75 -59 55 -30
-25 33 -85 73 -200 133 -82 43 -179 101 -208 125 -7 5 -48 37 -92 72 -72 55
-290 267 -403 390 -42 47 -42 47 -20 59 28 15 252 39 293 32 30 -6 74 -47 75
-70 0 -7 5 -13 10 -13 6 0 10 -5 10 -10 0 -10 41 -72 163 -248 41 -59 157
-197 157 -186 0 3 -22 32 -48 63 -49 57 -172 226 -172 237 0 3 -30 49 -66 102
-36 53 -66 100 -67 106 -1 5 12 13 28 16 26 5 22 8 -40 23 -88 21 -262 23
-340 2 -51 -13 -58 -13 -76 3 -28 23 -70 87 -94 142 -17 40 -58 101 -92 138
-7 7 -13 22 -13 32 0 10 -11 28 -26 39 -21 17 -45 64 -71 144 -3 9 -9 17 -14
17 -5 0 -9 7 -9 15 0 8 -4 15 -10 15 -5 0 -10 7 -10 15 0 8 -4 15 -9 15 -5 0
-14 14 -20 30 -5 17 -8 30 -6 30 4 0 -20 54 -46 102 -5 10 -9 31 -9 48 0 19
-5 30 -14 30 -10 0 -17 16 -22 48 -3 26 -11 53 -16 60 -6 6 -8 12 -4 12 3 0
-3 9 -14 20 -11 11 -23 38 -26 60 -8 48 -24 54 -18 7 17 -144 87 -366 143
-457 17 -28 31 -52 31 -54 0 -3 21 -40 46 -83 26 -43 58 -98 72 -123 14 -25
28 -47 32 -50 6 -4 60 -79 110 -153 8 -12 27 -37 42 -55 28 -33 37 -72 17 -72
-5 0 -7 -5 -3 -11 3 -6 17 -8 29 -5 31 8 42 -10 13 -20 -13 -4 -25 -10 -28
-15 -3 -5 -19 -4 -35 0 -17 5 -22 10 -12 10 9 1 17 6 17 11 0 13 -6 13 -33 -2
-22 -11 -22 -12 7 -24 l30 -12 -52 -26 c-78 -40 -118 -31 -75 16 16 18 15 21
-29 62 -26 24 -57 67 -73 102 -15 32 -37 69 -48 81 -11 12 -17 29 -14 37 4 11
-1 18 -17 22 -15 3 -27 16 -30 30 -4 13 -11 24 -16 24 -6 0 -10 6 -10 14 0 7
-11 33 -24 58 -19 35 -23 57 -21 109 1 46 -4 74 -17 99 -11 21 -14 36 -7 40
19 12 -2 42 -26 36 -40 -10 -59 15 -57 75 2 37 -1 49 -7 40 -8 -12 -11 -9 -16
15 -4 16 -10 38 -13 49 -3 11 -5 34 -4 50 1 25 0 26 -7 10 -8 -19 -8 -19 -16
4 -4 13 -2 28 4 34 16 16 14 37 -4 37 -8 0 -24 13 -36 30 -12 16 -26 27 -31
24 -11 -7 -10 147 1 164 10 16 21 -16 21 -60 0 -19 5 -28 16 -28 13 0 15 7 10
31 -3 17 -6 72 -6 121 0 62 -3 87 -11 82 -6 -4 -8 -20 -4 -40 4 -26 2 -34 -8
-34 -11 0 -17 20 -22 75 -5 54 -11 78 -23 85 -15 8 -15 11 -2 20 11 7 16 5 18
-5 2 -8 10 -15 18 -15 11 0 14 16 14 69 0 41 -5 73 -11 77 -8 5 -10 -4 -7 -30
2 -20 1 -36 -3 -36 -4 0 -9 -7 -11 -16 -3 -13 -5 -13 -23 0 -20 16 -20 16 5
36 l25 21 -22 16 c-16 11 -23 26 -23 49 0 19 -4 34 -10 34 -5 0 -10 9 -10 19
0 26 -17 36 -23 14 -3 -10 -5 -1 -6 20 -1 42 -33 82 -58 73 -13 -6 -15 1 -9
44 4 27 4 73 0 100 l-7 50 -48 0 c-26 0 -51 5 -54 10 -3 6 -17 10 -31 10 -13
0 -24 5 -24 10 0 15 -33 11 -47 -5z m387 -1055 c0 -5 -4 -10 -10 -10 -5 0 -10
5 -10 10 0 6 5 10 10 10 6 0 10 -4 10 -10z m75 -551 c-10 -15 -25 -10 -19 6 4
8 10 12 15 9 5 -3 7 -10 4 -15z m6405 -310 c0 -5 -4 -9 -10 -9 -5 0 -10 7 -10
16 0 8 5 12 10 9 6 -3 10 -10 10 -16z m-30 -99 c0 -5 -4 -10 -10 -10 -5 0 -10
5 -10 10 0 6 5 10 10 10 6 0 10 -4 10 -10z m30 -5 c0 -8 -4 -15 -10 -15 -5 0
-10 7 -10 15 0 8 5 15 10 15 6 0 10 -7 10 -15z m-23 -47 c-3 -8 -6 -5 -6 6 -1
11 2 17 5 13 3 -3 4 -12 1 -19z m-6180 -103 c0 -8 -4 -15 -8 -15 -11 0 -20 16
-12 24 11 11 20 7 20 -9z m268 -73 c-2 -3 18 -23 45 -45 49 -40 61 -57 39 -57
-5 0 -7 -5 -3 -11 4 -8 9 -7 14 2 7 10 11 10 24 0 21 -18 20 -32 -1 -25 -15 5
-15 3 1 -10 24 -19 40 -21 30 -3 -10 16 28 -14 39 -31 5 -7 20 -17 33 -23 14
-5 23 -13 20 -18 -3 -5 5 -12 18 -15 14 -3 37 -16 53 -28 15 -13 44 -32 63
-42 19 -11 44 -24 55 -30 10 -6 26 -17 33 -24 12 -11 12 -15 -4 -27 -17 -13
-15 -14 28 -15 36 0 46 -3 42 -14 -4 -10 -21 -13 -57 -11 -75 3 -78 4 -76 18
6 51 5 52 -97 51 l-96 -1 6 33 c6 27 3 35 -14 44 -22 12 -27 36 -8 42 6 2 -6
11 -28 20 -49 20 -89 63 -110 120 -3 9 -19 20 -35 23 -30 7 -40 25 -14 25 8 0
15 -4 15 -10 0 -5 8 -10 18 -9 34 1 -28 32 -67 34 -21 1 -48 9 -61 18 -22 15
-23 17 -4 23 10 4 22 12 26 18 4 6 14 3 27 -9 28 -24 36 -14 11 13 -31 33 -23
39 10 7 16 -16 28 -31 25 -33z m-321 -67 c3 -8 1 -15 -4 -15 -6 0 -10 7 -10
15 0 8 2 15 4 15 2 0 6 -7 10 -15z m6332 -61 c-6 -24 9 -34 16 -12 3 8 10 3
18 -12 7 -14 18 -28 24 -32 7 -5 4 -8 -7 -8 -10 0 -20 7 -23 15 -4 10 -13 13
-25 10 -17 -6 -19 -1 -19 38 0 31 -5 47 -15 51 -8 3 -15 11 -15 17 0 7 12 -1
26 -16 18 -20 24 -34 20 -51z m130 -38 c10 -8 16 -18 11 -22 -4 -4 -7 -2 -7 4
0 7 -7 12 -15 12 -14 0 -13 -3 2 -24 10 -13 20 -22 23 -21 3 2 12 0 19 -4 10
-6 10 -10 2 -16 -14 -8 -84 62 -76 76 8 13 18 11 41 -5z m-116 -31 c0 -8 -4
-15 -10 -15 -5 0 -10 7 -10 15 0 8 5 15 10 15 6 0 10 -7 10 -15z m-6215 -75
c3 -5 1 -10 -4 -10 -6 0 -11 5 -11 10 0 6 2 10 4 10 3 0 8 -4 11 -10z m6334
-44 c10 -12 8 -13 -8 -9 -12 3 -18 9 -15 14 7 12 10 11 23 -5z m-5872 -92 c-3
-3 -12 -4 -19 -1 -8 3 -5 6 6 6 11 1 17 -2 13 -5z m43 -24 c0 -5 -6 -10 -14
-10 -8 0 -18 5 -21 10 -3 6 3 10 14 10 12 0 21 -4 21 -10z m3360 3 c0 -5 -5
-15 -10 -23 -8 -12 -10 -11 -10 8 0 12 5 22 10 22 6 0 10 -3 10 -7z m-300 -52
c0 -5 -7 -11 -15 -15 -9 -3 -15 0 -15 9 0 8 7 15 15 15 8 0 15 -4 15 -9z
m-2985 -11 c3 -5 1 -10 -4 -10 -6 0 -11 5 -11 10 0 6 2 10 4 10 3 0 8 -4 11
-10z m3845 -85 c0 -8 -4 -15 -10 -15 -5 0 -10 7 -10 15 0 8 5 15 10 15 6 0 10
-7 10 -15z m700 5 c0 -5 -2 -10 -4 -10 -3 0 -8 5 -11 10 -3 6 -1 10 4 10 6 0
11 -4 11 -10z m-4325 -149 c3 -5 1 -12 -5 -16 -5 -3 -10 1 -10 9 0 18 6 21 15
7z m4900 -41 c-3 -5 -12 -10 -18 -10 -7 0 -6 4 3 10 19 12 23 12 15 0z m-1560
-99 c7 -12 -12 -24 -25 -16 -11 7 -4 25 10 25 5 0 11 -4 15 -9z m1636 -34
c-10 -9 -11 -8 -5 6 3 10 9 15 12 12 3 -3 0 -11 -7 -18z m49 -27 c0 -23 -22
-26 -39 -6 -10 12 -8 15 11 19 13 2 24 5 26 6 1 0 2 -8 2 -19z m-334 -39 c-4
-5 3 -7 14 -4 11 3 20 0 20 -6 0 -6 -8 -11 -17 -12 -10 0 -27 -2 -37 -4 -11
-2 -26 4 -34 13 -7 9 -11 11 -7 5 3 -7 1 -13 -4 -13 -12 0 -14 13 -4 23 10 11
75 8 69 -2z m358 -3 c-5 -8 -2 -9 10 -5 14 6 15 4 5 -16 -12 -21 -12 -21 -20
-2 -11 28 -11 35 2 35 5 0 7 -5 3 -12z m-847 -48 c72 -34 91 -37 99 -16 9 23
31 26 73 11 35 -12 41 -12 58 5 19 17 23 17 97 0 47 -12 83 -26 94 -39 9 -11
26 -21 37 -23 20 -3 53 -53 42 -64 -6 -6 -46 15 -102 56 -22 15 -42 27 -44 25
-2 -2 1 -18 7 -34 9 -24 8 -31 -2 -31 -7 0 -18 -12 -24 -26 -9 -18 -17 -24
-31 -19 -24 7 -51 -22 -31 -35 10 -6 8 -13 -11 -32 -20 -20 -32 -23 -71 -20
-26 2 -49 9 -51 15 -2 7 -2 -1 1 -18 2 -16 15 -42 29 -57 14 -15 27 -37 28
-50 1 -13 3 -26 4 -30 0 -5 9 -8 19 -8 22 0 42 -19 42 -40 0 -8 13 -40 28 -70
16 -30 31 -65 34 -76 6 -23 -15 -47 -50 -58 -11 -4 -26 -13 -32 -21 -10 -12
-9 -15 9 -15 11 0 21 -3 21 -7 0 -10 -89 -93 -101 -93 -5 0 -9 -7 -9 -15 0 -8
-4 -15 -9 -15 -5 0 -11 -8 -13 -18 -4 -15 -1 -18 18 -14 13 2 24 0 24 -6 0 -5
-12 -12 -26 -15 -21 -4 -34 4 -65 37 -22 22 -50 59 -63 81 -36 61 -86 231 -92
315 -3 41 -12 106 -20 144 -14 65 -18 263 -7 294 7 17 17 16 90 -18z m596 -17
c-7 -2 -19 -2 -25 0 -7 3 -2 5 12 5 14 0 19 -2 13 -5z m-43 -7 c0 -2 -11 -6
-25 -8 -13 -3 -22 -1 -19 3 5 9 44 13 44 5z m-4811 -20 c26 -31 -30 -76 -73
-60 -21 8 -20 50 2 63 25 15 58 13 71 -3z m4816 -106 c3 -5 1 -10 -4 -10 -6 0
-11 5 -11 10 0 6 2 10 4 10 3 0 8 -4 11 -10z m-6108 -127 c-3 -10 -5 -4 -5 12
0 17 2 24 5 18 2 -7 2 -21 0 -30z m1133 21 c0 -9 -5 -14 -12 -12 -18 6 -21 28
-4 28 9 0 16 -7 16 -16z m-1087 -123 c84 -209 203 -624 192 -671 -9 -34 -17
-17 -49 105 -14 55 -43 152 -64 215 -22 63 -51 160 -67 215 -15 55 -34 119
-41 143 -16 48 -17 62 -6 62 4 0 20 -31 35 -69z m287 -191 c0 -5 -4 -10 -10
-10 -5 0 -10 5 -10 10 0 6 5 10 10 10 6 0 10 -4 10 -10z m-25 -592 c-4 -46 -9
-85 -11 -87 -8 -9 -34 23 -34 42 0 31 32 127 43 127 6 0 7 -32 2 -82z m110 -4
c33 -70 74 -196 67 -208 -2 -4 -8 -3 -12 4 -4 6 -11 11 -16 10 -9 -2 -67 160
-78 218 -9 49 10 38 39 -24z m5870 -360 c91 -92 129 -139 157 -193 44 -85 33
-96 -13 -13 -21 36 -83 107 -173 197 -130 129 -196 203 -196 221 0 10 89 -74
225 -212z m-6053 83 c35 -29 81 -66 102 -82 22 -16 70 -57 107 -92 36 -35 72
-63 78 -63 40 0 561 -577 561 -621 0 -5 13 -31 30 -59 16 -28 33 -63 36 -78 4
-15 13 -36 20 -47 41 -65 127 -333 144 -450 5 -33 14 -81 19 -106 16 -73 42
-406 40 -502 -2 -85 -16 -184 -18 -128 -1 14 -5 50 -11 80 -41 229 -59 391
-62 556 -1 44 -4 72 -6 63 -2 -10 -8 -18 -13 -18 -12 0 -11 24 2 37 14 14 8
55 -10 61 -10 3 -11 -2 -6 -19 5 -18 4 -20 -4 -9 -6 8 -8 26 -5 40 5 20 3 22
-6 10 -12 -16 -11 -6 7 52 4 15 3 19 -6 13 -9 -5 -12 -1 -10 11 4 33 -12 92
-32 113 -10 11 -17 26 -14 33 3 7 1 27 -4 43 l-9 30 -15 -35 -16 -35 5 68 c4
55 2 67 -10 67 -10 0 -13 6 -9 16 5 13 2 15 -15 9 -13 -4 -22 -2 -22 4 0 6 6
11 13 12 6 0 1 5 -12 10 -15 6 -21 15 -17 24 3 8 0 15 -7 16 -9 0 -9 2 1 6 6
2 12 12 12 21 0 14 -2 15 -9 3 -15 -23 -65 3 -58 29 3 11 1 18 -4 14 -5 -3 -9
0 -9 6 0 6 -5 8 -12 4 -8 -5 -9 2 -5 24 6 28 4 32 -14 32 -11 0 -17 5 -14 10
3 6 1 10 -5 10 -6 0 -8 10 -4 26 5 19 4 25 -5 20 -13 -9 -45 20 -37 33 4 5 -8
20 -26 32 -42 30 -45 34 -43 70 1 16 -1 26 -4 23 -3 -3 -6 -16 -6 -27 0 -32
-37 -33 -69 -4 -14 13 -26 28 -26 32 0 4 -11 18 -25 31 -19 17 -24 30 -19 48
6 27 -13 46 -27 25 -7 -11 -9 -10 -9 4 0 9 -5 17 -10 17 -6 0 -14 8 -17 18 -4
9 -15 26 -26 37 -10 11 -27 36 -37 56 -22 43 -96 121 -140 147 -37 23 -190
153 -190 162 0 3 -9 15 -19 27 -18 19 -51 76 -51 88 0 14 25 0 82 -48z m898
-773 c0 -8 -7 -14 -15 -14 -10 0 -15 10 -15 26 0 22 2 25 15 14 8 -7 15 -19
15 -26z m-300 22 c0 -3 -4 -8 -10 -11 -5 -3 -10 -1 -10 4 0 6 5 11 10 11 6 0
10 -2 10 -4z m427 -848 c-3 -7 -5 -2 -5 12 0 14 2 19 5 13 2 -7 2 -19 0 -25z
m6521 -20 c30 -32 43 -73 29 -87 -40 -40 -133 51 -96 95 17 20 43 17 67 -8z
m-8468 -158 c8 -23 18 -44 24 -48 17 -11 34 -71 44 -157 13 -108 14 -175 2
-175 -6 0 -10 13 -10 30 0 21 -4 28 -14 24 -18 -7 -27 31 -32 126 -3 67 -19
153 -39 218 -4 12 -3 22 2 22 5 0 16 -18 23 -40z m7360 -175 c13 -16 6 -47
-15 -65 -32 -26 -63 38 -33 68 16 16 33 15 48 -3z m-6852 -98 c11 -12 40 -65
63 -117 43 -100 102 -232 150 -338 16 -35 29 -67 29 -72 0 -20 30 -16 51 6 45
48 134 18 127 -44 -4 -39 -46 -51 -105 -30 -46 17 -46 16 -65 -7 -11 -15 -34
-27 -56 -30 -74 -12 -83 -16 -128 -59 -49 -47 -110 -69 -125 -44 -11 17 -11
16 -9 362 1 160 5 312 11 339 5 27 9 51 9 53 0 12 30 1 48 -19z m5562 -232
c41 -21 60 -53 60 -101 0 -34 -5 -47 -26 -63 -38 -30 -77 -27 -119 10 -24 22
-35 39 -35 59 0 48 18 80 52 95 41 18 34 18 68 0z m2170 -324 c19 -36 -6 -71
-50 -71 -31 0 -50 17 -50 45 0 30 19 45 57 45 22 0 36 -6 43 -19z m-2131 -64
c27 -23 31 -32 31 -78 0 -54 -11 -77 -81 -169 -15 -20 -29 -44 -31 -55 -1 -11
-7 -23 -12 -26 -4 -4 -1 -17 8 -31 24 -37 0 -105 -56 -158 -23 -22 -37 -23
-143 -6 -53 9 -90 9 -107 1 -10 -4 -68 -2 -130 4 -94 9 -120 15 -158 39 -25
15 -45 33 -45 39 0 6 -4 15 -9 20 -5 5 -6 2 -1 -5 6 -11 3 -12 -13 -3 -12 6
-24 16 -28 23 -4 6 -3 8 4 4 6 -3 18 4 27 16 8 13 28 28 44 33 16 6 63 43 105
82 l77 73 -10 37 c-9 33 -8 40 11 60 12 13 26 23 31 23 6 0 19 8 29 17 12 11
34 16 68 15 27 0 52 3 55 9 4 5 18 9 33 9 15 0 52 13 82 29 47 26 64 29 121
27 55 -2 72 -7 98 -29z m-5286 -2227 c20 -11 37 -18 37 -15 0 13 42 -39 61
-77 45 -88 7 -210 -87 -278 -60 -43 -105 -57 -166 -52 -43 4 -53 10 -97 57
-27 30 -51 68 -55 86 -11 54 -7 120 10 154 23 48 78 110 116 128 47 23 135 22
181 -3z"/>
<path d="M2790 7630 c0 -5 5 -10 11 -10 5 0 7 5 4 10 -3 6 -8 10 -11 10 -2 0
-4 -4 -4 -10z"/>
<path d="M2828 7603 c7 -3 16 -2 19 1 4 3 -2 6 -13 5 -11 0 -14 -3 -6 -6z"/>
<path d="M7595 6890 c28 -12 47 -12 40 0 -3 6 -18 10 -33 9 -24 0 -25 -1 -7
-9z"/>
<path d="M7351 6274 c0 -11 3 -14 6 -6 3 7 2 16 -1 19 -3 4 -6 -2 -5 -13z"/>
<path d="M2596 4827 c3 -10 9 -15 12 -12 3 3 0 11 -7 18 -10 9 -11 8 -5 -6z"/>
<path d="M2726 4652 c-3 -5 1 -9 9 -9 8 0 12 4 9 9 -3 4 -7 8 -9 8 -2 0 -6 -4
-9 -8z"/>
<path d="M6415 2390 c-3 -6 1 -7 9 -4 18 7 21 14 7 14 -6 0 -13 -4 -16 -10z"/>
<path d="M868 10019 c-21 -11 -38 -24 -38 -29 0 -5 -6 -15 -13 -22 -16 -16
-37 -73 -37 -100 0 -15 5 -18 23 -13 29 9 77 64 77 90 0 11 6 29 13 40 18 27
28 55 19 55 -4 -1 -24 -10 -44 -21z"/>
<path d="M1973 9800 c0 -25 2 -35 4 -22 2 12 2 32 0 45 -2 12 -4 2 -4 -23z"/>
<path d="M9920 9260 l0 -60 -50 0 -50 0 0 -40 c0 -39 1 -40 35 -40 19 0 35 -5
35 -11 0 -7 11 -9 28 -5 15 3 21 3 15 0 -7 -3 -13 -17 -13 -30 0 -14 -4 -22
-10 -19 -5 3 -10 1 -10 -4 0 -6 19 -11 42 -11 23 0 38 -3 35 -6 -8 -8 37 -44
55 -44 8 0 19 -5 25 -11 8 -8 13 -8 17 0 4 6 21 11 38 11 30 0 30 1 23 38 -3
20 -25 93 -48 162 l-42 125 -62 3 -63 3 0 -61z m160 -160 c0 -5 -4 -10 -9 -10
-6 0 -13 5 -16 10 -3 6 1 10 9 10 9 0 16 -4 16 -10z"/>
<path d="M2001 9184 c0 -11 3 -14 6 -6 3 7 2 16 -1 19 -3 4 -6 -2 -5 -13z"/>
<path d="M6760 8967 c29 -14 99 -54 185 -107 33 -20 110 -60 170 -89 61 -29
118 -57 128 -62 56 -31 274 -96 284 -85 3 2 -10 7 -27 11 -30 7 -57 17 -170
67 -82 37 -265 130 -280 143 -30 26 -99 55 -117 49 -14 -5 -15 -4 -4 4 11 8 9
12 -9 22 -15 8 -20 8 -16 1 11 -17 0 -14 -57 18 -28 16 -65 31 -82 34 -30 6
-30 6 -5 -6z"/>
<path d="M2081 8915 c1 -40 1 -40 11 -12 7 21 7 32 -1 40 -8 8 -11 0 -10 -28z"/>
<path d="M10138 8839 c-23 -13 -11 -39 18 -39 25 0 28 7 18 34 -7 18 -12 19
-36 5z"/>
<path d="M3301 8764 c0 -11 3 -14 6 -6 3 7 2 16 -1 19 -3 4 -6 -2 -5 -13z"/>
<path d="M3311 8723 c-2 -41 85 -351 95 -340 2 2 -15 71 -37 153 -23 82 -45
163 -49 179 -6 24 -8 25 -9 8z"/>
<path d="M8480 8710 c0 -5 4 -10 9 -10 6 0 13 5 16 10 3 6 -1 10 -9 10 -9 0
-16 -4 -16 -10z"/>
<path d="M9600 8648 c0 -4 12 -8 27 -8 14 0 23 3 19 7 -10 10 -46 11 -46 1z"/>
<path d="M7550 8610 c8 -5 24 -10 34 -10 26 0 18 6 -19 14 -22 5 -26 4 -15 -4z"/>
<path d="M7620 8596 c0 -2 9 -6 20 -9 11 -3 18 -1 14 4 -5 9 -34 13 -34 5z"/>
<path d="M5378 8563 c6 -2 18 -2 25 0 6 3 1 5 -13 5 -14 0 -19 -2 -12 -5z"/>
<path d="M5448 8563 c7 -3 16 -2 19 1 4 3 -2 6 -13 5 -11 0 -14 -3 -6 -6z"/>
<path d="M5750 8560 c0 -5 5 -10 11 -10 5 0 7 5 4 10 -3 6 -8 10 -11 10 -2 0
-4 -4 -4 -10z"/>
<path d="M5036 8545 c4 -8 8 -15 10 -15 2 0 4 7 4 15 0 8 -4 15 -10 15 -5 0
-7 -7 -4 -15z"/>
<path d="M5065 8540 c-3 -5 -1 -10 4 -10 6 0 11 5 11 10 0 6 -2 10 -4 10 -3 0
-8 -4 -11 -10z"/>
<path d="M2285 8490 c-3 -5 3 -10 14 -10 12 0 21 5 21 10 0 6 -6 10 -14 10 -8
0 -18 -4 -21 -10z"/>
<path d="M3411 8364 c-1 -15 30 -106 35 -101 2 2 -5 28 -15 58 -11 30 -20 49
-20 43z"/>
<path d="M10000 8319 c0 -17 84 -43 178 -55 34 -5 42 -3 42 10 0 9 -6 16 -12
16 -39 2 -95 14 -107 24 -12 9 -13 8 -6 -4 7 -12 6 -13 -6 -3 -19 15 -89 25
-89 12z"/>
<path d="M5122 8240 c0 -14 2 -19 5 -12 2 6 2 18 0 25 -3 6 -5 1 -5 -13z"/>
<path d="M3460 8200 c0 -17 17 -47 23 -40 2 3 -2 16 -10 30 -7 14 -13 18 -13
10z"/>
<path d="M5135 8175 c2 -22 7 -71 11 -109 4 -38 10 -62 14 -55 4 8 1 50 -6 94
-16 94 -25 127 -19 70z"/>
<path d="M3208 8193 c7 -3 16 -2 19 1 4 3 -2 6 -13 5 -11 0 -14 -3 -6 -6z"/>
<path d="M3680 8176 c0 -9 7 -16 15 -16 8 0 15 -4 15 -8 0 -26 100 -36 115
-12 10 17 -36 42 -89 47 -48 5 -56 3 -56 -11z"/>
<path d="M3378 8173 c12 -2 32 -2 45 0 12 2 2 4 -23 4 -25 0 -35 -2 -22 -4z"/>
<path d="M2660 8126 c0 -2 8 -10 18 -17 15 -13 16 -12 3 4 -13 16 -21 21 -21
13z"/>
<path d="M5660 8100 c49 -8 329 -4 338 5 3 3 -82 4 -189 4 -119 -1 -177 -4
-149 -9z"/>
<path d="M3622 8060 c-13 -21 -16 -68 -6 -94 5 -13 9 -14 20 -5 11 9 14 6 14
-17 0 -22 3 -26 10 -14 8 13 10 12 11 -5 1 -11 1 -26 0 -32 -2 -12 53 -119 70
-137 15 -16 10 6 -11 49 -11 22 -20 45 -20 50 0 14 -58 193 -68 210 -6 12 -10
11 -20 -5z"/>
<path d="M3515 8045 c4 -11 18 -49 31 -85 40 -107 78 -193 81 -183 2 5 -10 43
-27 84 -17 41 -40 99 -52 129 -11 30 -25 60 -31 65 -7 7 -7 4 -2 -10z"/>
<path d="M8280 8020 c-12 -8 -12 -10 3 -16 21 -8 35 2 21 16 -5 5 -15 6 -24 0z"/>
<path d="M8233 7960 c0 -25 2 -35 4 -22 2 12 2 32 0 45 -2 12 -4 2 -4 -23z"/>
<path d="M5162 7950 c0 -19 2 -27 5 -17 2 9 2 25 0 35 -3 9 -5 1 -5 -18z"/>
<path d="M7620 7953 c0 -6 7 -16 15 -23 8 -7 15 -18 15 -25 0 -6 9 -20 20 -30
30 -28 24 -3 -11 41 -39 49 -39 49 -39 37z"/>
<path d="M8380 7926 c0 -2 7 -7 16 -10 8 -3 12 -2 9 4 -6 10 -25 14 -25 6z"/>
<path d="M5172 7870 c0 -19 2 -27 5 -17 2 9 2 25 0 35 -3 9 -5 1 -5 -18z"/>
<path d="M7697 7843 c-6 -5 8 -23 56 -75 15 -17 35 -43 44 -59 9 -15 25 -30
35 -33 17 -4 17 -2 -4 24 -75 91 -127 148 -131 143z"/>
<path d="M5182 7770 c0 -19 2 -27 5 -17 2 9 2 25 0 35 -3 9 -5 1 -5 -18z"/>
<path d="M3645 7723 c16 -38 25 -52 25 -39 0 12 -29 76 -35 76 -3 0 2 -17 10
-37z"/>
<path d="M8080 7725 c0 -16 16 -20 24 -6 3 5 -1 11 -9 15 -9 3 -15 0 -15 -9z"/>
<path d="M5192 7700 c0 -19 2 -27 5 -17 2 9 2 25 0 35 -3 9 -5 1 -5 -18z"/>
<path d="M3430 7664 c0 -6 15 -23 33 -40 l32 -29 -30 35 c-16 19 -31 37 -32
39 -2 2 -3 0 -3 -5z"/>
<path d="M5202 7625 c0 -16 2 -22 5 -12 2 9 2 23 0 30 -3 6 -5 -1 -5 -18z"/>
<path d="M3490 7586 c0 -2 8 -10 18 -17 15 -13 16 -12 3 4 -13 16 -21 21 -21
13z"/>
<path d="M5217 7430 c3 -25 7 -47 9 -49 8 -9 2 55 -6 74 -6 13 -7 5 -3 -25z"/>
<path d="M3120 7432 c0 -11 69 -26 78 -18 8 9 1 13 -40 20 -22 4 -38 3 -38 -2z"/>
<path d="M3655 7350 c3 -5 8 -10 11 -10 2 0 4 5 4 10 0 6 -5 10 -11 10 -5 0
-7 -4 -4 -10z"/>
<path d="M5232 7285 c0 -16 2 -22 5 -12 2 9 2 23 0 30 -3 6 -5 -1 -5 -18z"/>
<path d="M7845 7060 c-10 -11 -25 -20 -34 -20 -14 0 -14 -2 -1 -10 23 -15 53
-12 47 4 -3 7 0 19 6 25 6 6 8 13 5 16 -2 3 -13 -4 -23 -15z"/>
<path d="M4289 7057 c5 -5 21 -7 37 -5 27 3 26 4 -8 9 -22 3 -34 1 -29 -4z"/>
<path d="M6310 6905 c0 -19 36 -39 45 -25 8 13 -13 40 -31 40 -8 0 -14 -7 -14
-15z"/>
<path d="M6015 6820 c4 -6 11 -8 16 -5 14 9 11 15 -7 15 -8 0 -12 -5 -9 -10z"/>
<path d="M6090 6631 c12 -23 30 -36 30 -22 0 21 -13 41 -26 41 -11 0 -12 -4
-4 -19z"/>
<path d="M6130 6585 c0 -2 10 -10 23 -16 20 -11 21 -11 8 4 -13 16 -31 23 -31
12z"/>
<path d="M3535 6540 c3 -5 8 -10 11 -10 2 0 4 5 4 10 0 6 -5 10 -11 10 -5 0
-7 -4 -4 -10z"/>
<path d="M3270 6499 c0 -5 5 -7 10 -4 6 3 10 8 10 11 0 2 -4 4 -10 4 -5 0 -10
-5 -10 -11z"/>
<path d="M3004 6305 c-18 -14 -18 -14 3 -15 12 0 23 -5 25 -12 3 -8 7 -6 11 4
9 26 -16 41 -39 23z"/>
<path d="M4781 6260 c1 -14 5 -38 9 -55 7 -29 8 -29 9 10 0 22 -4 47 -9 55 -8
12 -9 10 -9 -10z"/>
<path d="M7086 6245 c-9 -26 -7 -32 5 -12 6 10 9 21 6 23 -2 3 -7 -2 -11 -11z"/>
<path d="M5460 5508 c0 -7 7 -26 15 -42 21 -39 19 -63 -10 -120 -14 -27 -23
-51 -21 -53 7 -7 60 24 81 47 28 31 28 129 1 159 -21 23 -66 29 -66 9z"/>
<path d="M7266 5441 c-3 -5 1 -14 8 -20 12 -10 13 -8 9 8 -6 23 -9 25 -17 12z"/>
<path d="M7390 5424 c0 -9 5 -14 12 -12 18 6 21 28 4 28 -9 0 -16 -7 -16 -16z"/>
<path d="M4286 5398 c-25 -9 -28 -14 -23 -44 8 -47 65 -123 106 -140 49 -21
56 -17 22 11 -37 32 -54 80 -42 121 9 33 -2 65 -22 63 -7 0 -25 -5 -41 -11z"/>
<path d="M7284 5381 c2 -15 -11 -48 -32 -83 -39 -66 -43 -55 42 -115 36 -26
39 -26 51 -9 21 28 -10 159 -50 212 -14 18 -15 18 -11 -5z"/>
<path d="M7384 5356 c-6 -27 2 -49 16 -41 5 3 12 0 16 -6 5 -9 11 -7 20 5 10
15 9 22 -9 42 -26 30 -35 30 -43 0z"/>
<path d="M7491 5331 c-16 -10 -6 -51 14 -51 13 0 28 38 19 52 -7 10 -15 10
-33 -1z"/>
<path d="M2706 4945 c4 -8 8 -15 10 -15 2 0 4 7 4 15 0 8 -4 15 -10 15 -5 0
-7 -7 -4 -15z"/>
<path d="M2760 4881 c0 -6 5 -13 10 -16 6 -3 10 1 10 9 0 9 -4 16 -10 16 -5 0
-10 -4 -10 -9z"/>
<path d="M2804 4804 c3 -9 6 -19 6 -22 0 -9 20 21 20 31 0 4 -7 7 -16 7 -11 0
-14 -5 -10 -16z"/>
<path d="M6136 3042 c-4 -13 -5 -26 -2 -29 10 -11 18 4 14 29 l-4 23 -8 -23z"/>
<path d="M6181 3024 c0 -11 3 -14 6 -6 3 7 2 16 -1 19 -3 4 -6 -2 -5 -13z"/>
<path d="M6420 2211 c0 -16 217 -174 272 -198 26 -11 27 -11 16 13 -6 13 -15
24 -20 24 -4 0 -8 6 -8 13 0 7 -15 21 -32 32 -18 10 -42 27 -53 38 -11 10 -32
21 -47 24 -15 3 -33 12 -40 21 -10 12 -10 14 0 8 7 -4 12 -2 12 5 0 6 -8 9
-20 6 -11 -3 -20 -1 -20 5 0 5 -4 6 -10 3 -5 -3 -19 -1 -30 5 -13 7 -20 7 -20
1z"/>
<path d="M6943 1896 c9 -23 -22 -76 -44 -76 -10 0 -19 -7 -19 -15 0 -24 -24
-7 -44 30 -11 19 -21 33 -23 31 -7 -7 83 -182 106 -207 11 -12 21 -26 21 -30
0 -13 90 -70 100 -64 6 3 7 -1 4 -9 -5 -13 1 -15 38 -10 37 5 54 1 104 -24 33
-17 66 -37 73 -46 8 -9 20 -16 27 -16 8 0 14 -4 14 -8 0 -16 42 -57 55 -54 8
1 19 -8 26 -20 7 -13 23 -33 36 -45 24 -23 31 -53 12 -53 -5 0 -7 -5 -4 -10 4
-6 12 -10 18 -9 7 1 20 -1 31 -6 17 -7 17 -9 -5 -21 -13 -7 -32 -13 -42 -14
-24 0 -16 -24 9 -28 40 -6 76 -26 85 -46 18 -40 52 -91 85 -129 19 -20 34 -41
34 -45 0 -5 8 -17 18 -28 9 -10 33 -43 52 -72 19 -28 39 -52 43 -52 4 0 17
-21 28 -47 11 -26 24 -50 28 -53 5 -3 16 -20 25 -37 9 -18 20 -33 25 -33 5 0
8 -8 7 -17 -2 -9 10 -42 26 -72 15 -31 28 -66 28 -78 0 -17 9 -25 40 -34 38
-12 39 -13 24 -31 -10 -10 -23 -18 -31 -18 -7 0 -13 -7 -13 -15 0 -8 -6 -15
-12 -15 -17 -1 73 -80 90 -80 7 0 10 -4 7 -10 -3 -5 0 -7 7 -5 8 3 23 -3 33
-13 11 -10 61 -27 110 -39 50 -11 99 -24 110 -28 11 -4 3 4 -18 17 -21 13 -35
27 -31 31 4 4 -4 17 -17 29 -19 18 -23 31 -21 61 2 20 6 37 10 37 16 -1 38
-26 34 -39 -3 -8 0 -11 6 -7 6 3 8 -1 6 -11 -5 -20 10 -41 46 -66 16 -11 19
-17 10 -18 -8 0 -5 -4 8 -9 12 -5 22 -16 22 -23 0 -14 45 -105 59 -119 3 -4 5
10 3 31 -3 33 -1 40 18 46 15 5 26 2 31 -6 16 -26 9 2 -11 43 -11 23 -20 49
-20 59 0 9 -6 22 -14 28 -8 7 -12 20 -9 30 3 11 0 29 -7 41 -9 16 -9 25 1 36
9 12 9 13 -3 9 -9 -4 -15 0 -15 10 0 18 8 19 41 3 14 -6 28 -19 31 -30 4 -10
10 -18 15 -18 19 0 28 74 9 85 -6 5 -4 12 8 21 16 12 16 13 2 14 -10 0 -24 17
-34 43 -18 44 -37 66 -74 86 -12 7 -29 27 -36 44 -12 27 -14 29 -15 10 0 -13
-4 -23 -10 -23 -5 0 -10 4 -10 10 0 16 -72 31 -88 18 -11 -10 -17 -9 -26 3 -6
9 -21 19 -34 23 -22 7 -112 88 -112 101 0 3 -56 62 -124 131 -69 68 -146 152
-173 186 -26 34 -55 70 -64 79 -9 9 -35 48 -58 85 -22 38 -70 97 -106 132 -36
35 -65 67 -65 71 0 4 -23 30 -51 57 -28 27 -109 106 -180 176 -71 70 -143 135
-159 143 -17 9 -30 20 -30 26 0 6 -5 7 -10 4 -6 -4 -24 1 -42 9 -38 20 -42 20
-35 2z m127 -300 c0 -3 -4 -8 -10 -11 -5 -3 -10 -1 -10 4 0 6 5 11 10 11 6 0
10 -2 10 -4z"/>
<path d="M7015 1494 c-33 -8 -105 -20 -160 -28 -126 -17 -57 -21 96 -5 57 6
115 11 129 12 27 3 35 31 10 33 -8 1 -42 -4 -75 -12z"/>
<path d="M6713 1443 c9 -2 23 -2 30 0 6 3 -1 5 -18 5 -16 0 -22 -2 -12 -5z"/>
<path d="M6423 1367 c-21 -19 -51 -45 -67 -58 -17 -13 -41 -35 -54 -49 -13
-14 -31 -25 -41 -25 -9 0 -16 -5 -16 -12 0 -6 -16 -24 -35 -40 -20 -15 -47
-39 -60 -52 l-25 -24 33 19 c98 60 344 274 315 274 -7 0 -30 -15 -50 -33z"/>
<path d="M7205 1133 c-77 -9 -77 -9 -60 -50 23 -55 42 -71 90 -79 48 -7 77 0
100 22 19 19 20 74 2 74 -8 0 -24 9 -37 20 -22 20 -33 21 -95 13z"/>
<path d="M8321 194 c0 -11 3 -14 6 -6 3 7 2 16 -1 19 -3 4 -6 -2 -5 -13z"/>
</g>
</svg>
